<svg width="281" height="257" viewBox="0 0 281 257" fill="none" xmlns="http://www.w3.org/2000/svg">
<path d="M182.903 141.135C196.804 125.902 208.258 110.018 215.151 96.41C223.233 80.4649 224.166 69.501 217.933 63.8433C215.547 61.6734 212.492 60.7158 208.936 60.7509C208.821 60.7509 208.698 60.7509 208.575 60.7509C208.284 60.7509 207.985 60.7773 207.686 60.7949C201.814 61.1551 194.41 64.1157 185.5 69.703C172.568 77.8206 157.795 90.6821 143.894 105.924C140.918 109.184 138.075 112.469 135.346 115.755C121.797 104.036 108.063 94.3367 96.1691 88.1432C80.3048 79.8851 69.4762 78.7518 63.9739 84.7872C58.4716 90.8139 60.6109 101.47 70.339 116.458C78.0686 128.371 89.9008 141.952 103.881 154.998C104.761 152.881 105.783 150.676 106.945 148.401C107.508 147.294 108.107 146.169 108.723 145.036C96.4068 133.273 86.0536 121.263 79.2131 110.721C70.7616 97.7015 71.3338 92.3864 71.7916 91.8769C71.9325 91.7187 72.5399 91.5079 73.7284 91.5079C76.3519 91.5079 81.7926 92.5446 91.283 97.4818C102.578 103.368 115.722 112.689 128.769 124.013C121.7 133.29 115.837 142.392 111.655 150.641C103.573 166.586 102.64 177.55 108.873 183.208C111.188 185.316 114.146 186.37 117.729 186.37C120.168 186.37 122.897 185.87 125.917 184.903C125.97 184.886 126.031 184.868 126.084 184.851C126.692 184.649 127.308 184.438 127.933 184.2C128.355 184.042 128.796 183.858 129.236 183.682C129.403 183.612 129.562 183.55 129.729 183.48C131.622 182.689 133.602 181.749 135.698 180.616C141.138 184.297 146.403 187.486 151.359 190.06C160.533 194.839 168.025 197.229 173.783 197.229C177.973 197.229 181.239 195.955 183.555 193.416C189.057 187.39 186.918 176.733 177.19 161.746C175.402 158.987 173.378 156.132 171.168 153.215C175.112 149.394 179.047 145.352 182.912 141.109L182.903 141.135ZM123.522 174.581C118.83 176.206 116.611 175.775 116.171 175.371C115.678 174.923 114.939 172.323 116.726 166.323C119.807 168.879 122.888 171.321 125.943 173.632C125.08 174.001 124.27 174.317 123.531 174.581H123.522ZM208.839 71.3195C209.843 71.3195 210.415 71.5128 210.617 71.6973C211.348 72.3562 212.616 77.6976 205.52 91.71C199.049 104.492 188.168 119.541 174.892 134.099C171.45 137.876 167.954 141.487 164.459 144.904C158.297 137.648 151.131 130.18 143.286 122.889C146.024 119.577 148.894 116.256 151.905 112.961C165.181 98.4043 179.188 86.1929 191.328 78.5673C196.681 75.2114 200.757 73.3225 203.768 72.3122C206.057 71.5567 207.721 71.3195 208.839 71.3195ZM120.916 156.062C121.031 155.824 121.145 155.587 121.268 155.35C125.045 147.891 130.336 139.651 136.719 131.199C144.176 138.175 150.955 145.273 156.747 152.135C149.625 158.504 142.626 163.924 136.138 168.071C131.146 164.451 126.031 160.419 120.916 156.07V156.062ZM175.728 186.335C175.27 186.845 170.015 187.908 156.228 180.73C152.83 178.965 149.264 176.874 145.584 174.519C151.307 170.592 157.302 165.839 163.385 160.445C165.181 162.852 166.828 165.207 168.315 167.491C176.767 180.511 176.195 185.826 175.737 186.335H175.728Z" fill="white"/>
</svg>
