<svg width="526" height="258" viewBox="0 0 526 258" fill="none" xmlns="http://www.w3.org/2000/svg">
<path d="M181.903 141.385C195.804 126.152 207.258 110.268 214.151 96.66C222.233 80.7149 223.166 69.751 216.933 64.0933C214.547 61.9234 211.492 60.9658 207.936 61.0009C207.821 61.0009 207.698 61.0009 207.575 61.0009C207.284 61.0009 206.985 61.0273 206.686 61.0449C200.814 61.4051 193.41 64.3657 184.5 69.953C171.568 78.0706 156.795 90.9321 142.894 106.174C139.918 109.434 137.075 112.719 134.346 116.005C120.797 104.286 107.063 94.5867 95.1691 88.3932C79.3048 80.1351 68.4762 79.0018 62.9739 85.0372C57.4716 91.0639 59.6109 101.72 69.339 116.708C77.0686 128.621 88.9008 142.202 102.881 155.248C103.761 153.131 104.783 150.926 105.945 148.651C106.508 147.544 107.107 146.419 107.723 145.286C95.4068 133.523 85.0536 121.513 78.2131 110.971C69.7616 97.9515 70.3338 92.6364 70.7916 92.1269C70.9325 91.9687 71.5399 91.7579 72.7284 91.7579C75.3519 91.7579 80.7926 92.7946 90.283 97.7318C101.578 103.618 114.722 112.939 127.769 124.263C120.7 133.54 114.837 142.642 110.655 150.891C102.573 166.836 101.64 177.8 107.873 183.458C110.188 185.566 113.146 186.62 116.729 186.62C119.168 186.62 121.897 186.12 124.917 185.153C124.97 185.136 125.031 185.118 125.084 185.101C125.692 184.899 126.308 184.688 126.933 184.45C127.355 184.292 127.796 184.108 128.236 183.932C128.403 183.862 128.562 183.8 128.729 183.73C130.622 182.939 132.602 181.999 134.698 180.866C140.138 184.547 145.403 187.736 150.359 190.31C159.533 195.089 167.025 197.479 172.783 197.479C176.973 197.479 180.239 196.205 182.555 193.666C188.057 187.64 185.918 176.983 176.19 161.996C174.402 159.237 172.378 156.382 170.168 153.465C174.112 149.644 178.047 145.602 181.912 141.359L181.903 141.385ZM122.522 174.831C117.83 176.456 115.611 176.025 115.171 175.621C114.678 175.173 113.939 172.573 115.726 166.573C118.807 169.129 121.888 171.571 124.943 173.882C124.08 174.251 123.27 174.567 122.531 174.831H122.522ZM207.839 71.5695C208.843 71.5695 209.415 71.7628 209.617 71.9473C210.348 72.6062 211.616 77.9476 204.52 91.96C198.049 104.742 187.168 119.791 173.892 134.349C170.45 138.126 166.954 141.737 163.459 145.154C157.297 137.898 150.131 130.43 142.286 123.139C145.024 119.827 147.894 116.506 150.905 113.211C164.181 98.6543 178.188 86.4429 190.328 78.8173C195.681 75.4614 199.757 73.5725 202.768 72.5622C205.057 71.8067 206.721 71.5695 207.839 71.5695ZM119.916 156.312C120.031 156.074 120.145 155.837 120.268 155.6C124.045 148.141 129.336 139.901 135.719 131.449C143.176 138.425 149.955 145.523 155.747 152.385C148.625 158.754 141.626 164.174 135.138 168.321C130.146 164.701 125.031 160.669 119.916 156.32V156.312ZM174.728 186.585C174.27 187.095 169.015 188.158 155.228 180.98C151.83 179.215 148.264 177.124 144.584 174.769C150.307 170.842 156.302 166.089 162.385 160.695C164.181 163.102 165.828 165.457 167.315 167.741C175.767 180.761 175.195 186.076 174.737 186.585H174.728Z" fill="white"/>
<path d="M455.771 174.295V164.507H465V174.295H455.771Z" fill="white"/>
<path d="M413.876 174.291V136.257H422.475V143.738L421.776 142.41C422.662 140.126 424.107 138.401 426.111 137.236C428.162 136.024 430.539 135.418 433.242 135.418C436.039 135.418 438.509 136.024 440.653 137.236C442.844 138.448 444.545 140.149 445.757 142.34C446.969 144.484 447.575 146.978 447.575 149.821V174.291H438.416V151.988C438.416 150.31 438.09 148.865 437.437 147.653C436.784 146.442 435.876 145.509 434.71 144.857C433.592 144.158 432.263 143.808 430.725 143.808C429.234 143.808 427.905 144.158 426.74 144.857C425.575 145.509 424.666 146.442 424.013 147.653C423.361 148.865 423.034 150.31 423.034 151.988V174.291H413.876Z" fill="white"/>
<path d="M390.747 175.13C387.018 175.13 383.616 174.268 380.54 172.543C377.51 170.819 375.086 168.465 373.268 165.482C371.497 162.499 370.612 159.096 370.612 155.274C370.612 151.452 371.497 148.05 373.268 145.067C375.086 142.084 377.51 139.73 380.54 138.005C383.569 136.281 386.972 135.418 390.747 135.418C394.476 135.418 397.855 136.281 400.885 138.005C403.914 139.73 406.315 142.084 408.086 145.067C409.904 148.003 410.813 151.406 410.813 155.274C410.813 159.096 409.904 162.499 408.086 165.482C406.268 168.465 403.845 170.819 400.815 172.543C397.785 174.268 394.429 175.13 390.747 175.13ZM390.747 166.74C392.798 166.74 394.592 166.251 396.131 165.272C397.715 164.293 398.95 162.941 399.836 161.217C400.768 159.446 401.234 157.465 401.234 155.274C401.234 153.037 400.768 151.079 399.836 149.401C398.95 147.677 397.715 146.325 396.131 145.346C394.592 144.321 392.798 143.808 390.747 143.808C388.65 143.808 386.809 144.321 385.224 145.346C383.639 146.325 382.381 147.677 381.448 149.401C380.563 151.079 380.12 153.037 380.12 155.274C380.12 157.465 380.563 159.446 381.448 161.217C382.381 162.941 383.639 164.293 385.224 165.272C386.809 166.251 388.65 166.74 390.747 166.74Z" fill="white"/>
<path d="M349.026 175.13C345.297 175.13 341.894 174.268 338.818 172.543C335.789 170.819 333.365 168.465 331.547 165.482C329.776 162.499 328.89 159.096 328.89 155.274C328.89 151.452 329.776 148.05 331.547 145.067C333.365 142.084 335.789 139.73 338.818 138.005C341.848 136.281 345.25 135.418 349.026 135.418C352.755 135.418 356.134 136.281 359.163 138.005C362.193 139.73 364.594 142.084 366.365 145.067C368.183 148.003 369.091 151.406 369.091 155.274C369.091 159.096 368.183 162.499 366.365 165.482C364.547 168.465 362.123 170.819 359.094 172.543C356.064 174.268 352.708 175.13 349.026 175.13ZM349.026 166.74C351.077 166.74 352.871 166.251 354.409 165.272C355.994 164.293 357.229 162.941 358.115 161.217C359.047 159.446 359.513 157.465 359.513 155.274C359.513 153.037 359.047 151.079 358.115 149.401C357.229 147.677 355.994 146.325 354.409 145.346C352.871 144.321 351.077 143.808 349.026 143.808C346.928 143.808 345.087 144.321 343.503 145.346C341.918 146.325 340.659 147.677 339.727 149.401C338.842 151.079 338.399 153.037 338.399 155.274C338.399 157.465 338.842 159.446 339.727 161.217C340.659 162.941 341.918 164.293 343.503 165.272C345.087 166.251 346.928 166.74 349.026 166.74Z" fill="white"/>
<path d="M287.335 188.274V136.257H295.935V143.808L295.096 141.92C296.401 139.87 298.172 138.285 300.41 137.166C302.647 136.001 305.234 135.418 308.17 135.418C311.759 135.418 314.999 136.304 317.888 138.075C320.778 139.846 323.062 142.223 324.74 145.206C326.465 148.189 327.327 151.545 327.327 155.274C327.327 158.956 326.488 162.312 324.81 165.342C323.132 168.372 320.848 170.772 317.958 172.543C315.068 174.268 311.782 175.13 308.1 175.13C305.35 175.13 302.81 174.594 300.479 173.522C298.196 172.403 296.378 170.819 295.026 168.768L296.494 166.95V188.274H287.335ZM307.051 166.74C309.149 166.74 311.013 166.251 312.645 165.272C314.276 164.293 315.535 162.941 316.42 161.217C317.352 159.492 317.818 157.511 317.818 155.274C317.818 153.037 317.352 151.079 316.42 149.401C315.535 147.677 314.276 146.325 312.645 145.346C311.013 144.321 309.149 143.808 307.051 143.808C305.047 143.808 303.229 144.297 301.598 145.276C300.013 146.255 298.755 147.63 297.823 149.401C296.937 151.126 296.494 153.083 296.494 155.274C296.494 157.511 296.937 159.492 297.823 161.217C298.755 162.941 300.013 164.293 301.598 165.272C303.229 166.251 305.047 166.74 307.051 166.74Z" fill="white"/>
<path d="M269.782 175.13C265.727 175.13 262.184 174.175 259.155 172.263C256.172 170.306 254.121 167.672 253.002 164.363L259.854 161.077C260.833 163.221 262.184 164.899 263.909 166.111C265.68 167.323 267.638 167.929 269.782 167.929C271.46 167.929 272.788 167.556 273.767 166.81C274.746 166.064 275.235 165.086 275.235 163.874C275.235 163.128 275.025 162.522 274.606 162.056C274.233 161.543 273.697 161.124 272.998 160.797C272.345 160.425 271.623 160.122 270.831 159.889L264.608 158.141C261.392 157.208 258.945 155.787 257.267 153.876C255.636 151.965 254.82 149.704 254.82 147.094C254.82 144.764 255.403 142.736 256.568 141.011C257.78 139.24 259.434 137.865 261.532 136.886C263.676 135.908 266.123 135.418 268.873 135.418C272.462 135.418 275.631 136.281 278.381 138.005C281.131 139.73 283.089 142.153 284.254 145.276L277.263 148.562C276.61 146.838 275.515 145.463 273.977 144.437C272.439 143.412 270.714 142.899 268.803 142.899C267.265 142.899 266.053 143.249 265.167 143.948C264.282 144.647 263.839 145.556 263.839 146.675C263.839 147.374 264.025 147.98 264.398 148.492C264.771 149.005 265.284 149.425 265.936 149.751C266.636 150.077 267.428 150.38 268.314 150.66L274.396 152.478C277.519 153.41 279.919 154.808 281.597 156.672C283.322 158.537 284.184 160.821 284.184 163.524C284.184 165.808 283.578 167.836 282.367 169.607C281.155 171.331 279.477 172.683 277.333 173.662C275.189 174.641 272.672 175.13 269.782 175.13Z" fill="white"/>
<path d="M346.273 116.84C342.917 116.84 339.887 116.071 337.184 114.533C334.527 112.948 332.406 110.781 330.822 108.031C329.283 105.281 328.514 102.158 328.514 98.6619C328.514 95.8187 329.004 93.1619 329.983 90.6916C331.008 88.1746 332.43 85.984 334.247 84.1196C336.112 82.2086 338.256 80.717 340.68 79.645C343.103 78.573 345.714 78.037 348.51 78.037C351.959 78.037 355.012 78.806 357.669 80.3442C360.326 81.8823 362.423 84.0263 363.961 86.7763C365.499 89.4797 366.269 92.5793 366.269 96.075C366.269 98.9183 365.756 101.598 364.73 104.115C363.705 106.632 362.26 108.846 360.396 110.757C358.578 112.668 356.457 114.16 354.033 115.232C351.61 116.304 349.023 116.84 346.273 116.84ZM346.203 112.715C349.139 112.715 351.773 111.946 354.103 110.408C356.48 108.87 358.345 106.842 359.697 104.325C361.095 101.761 361.794 98.9882 361.794 96.0051C361.794 93.3484 361.211 90.9712 360.046 88.8738C358.927 86.7763 357.366 85.145 355.362 83.9797C353.404 82.7679 351.144 82.1619 348.58 82.1619C345.69 82.1619 343.057 82.931 340.68 84.4691C338.349 85.9607 336.485 87.9649 335.086 90.4818C333.688 92.9522 332.989 95.7022 332.989 98.7318C332.989 101.389 333.548 103.789 334.667 105.933C335.832 108.031 337.394 109.685 339.351 110.897C341.355 112.109 343.639 112.715 346.203 112.715Z" fill="white"/>
<path d="M285.318 115.997L277.837 78.872H282.381L288.743 112.501H286.926L301.818 78.872H306.082L311.466 112.501H309.508L325.379 78.872H330.273L312.305 115.997H307.97L302.866 83.5563H304.125L289.652 115.997H285.318Z" fill="white"/>
<path d="M267.962 116.419C264.792 116.419 262.462 115.533 260.97 113.762C259.525 111.944 259.036 109.357 259.502 106.001L262.718 82.8593H255.727L256.356 78.8741H258.803C260.201 78.8741 261.343 78.4313 262.229 77.5457C263.161 76.6602 263.72 75.4949 263.907 74.05L264.466 70.2047H268.731L267.542 78.8741H275.583L275.023 82.8593H266.983L263.697 106.281C263.557 107.306 263.557 108.308 263.697 109.287C263.837 110.219 264.28 110.988 265.025 111.594C265.771 112.154 266.96 112.433 268.591 112.433C269.057 112.433 269.547 112.41 270.059 112.363C270.619 112.317 271.061 112.27 271.388 112.224L271.108 116.139C270.595 116.279 270.013 116.349 269.36 116.349C268.754 116.395 268.288 116.419 267.962 116.419Z" fill="white"/>
</svg>
